<svg width="30" height="25" fill="none" xmlns="http://www.w3.org/2000/svg"><path d="m27.506 14.713 2.462-10.156c.178-.734-.416-1.432-1.218-1.432H8.292L7.815.937C7.695.392 7.184 0 6.59 0H1.25C.56 0 0 .525 0 1.172v.781C0 2.6.56 3.125 1.25 3.125h3.64l3.658 16.77c-.875.471-1.465 1.356-1.465 2.37C7.083 23.776 8.39 25 10 25c1.61 0 2.917-1.224 2.917-2.734 0-.766-.336-1.457-.877-1.953h10.92a2.645 2.645 0 0 0-.877 1.953C22.083 23.776 23.39 25 25 25c1.61 0 2.917-1.224 2.917-2.734 0-1.083-.672-2.018-1.645-2.462l.287-1.185c.178-.733-.417-1.431-1.219-1.431H11.36l-.34-1.563h15.267c.584 0 1.09-.379 1.22-.912Z" fill="#111"/></svg>